<?xml version="1.0" standalone="no"?><!DOCTYPE svg PUBLIC "-//W3C//DTD SVG 1.1//EN" "http://www.w3.org/Graphics/SVG/1.1/DTD/svg11.dtd"><svg t="1490289380091" class="icon" style="" viewBox="0 0 1024 1024" version="1.1" xmlns="http://www.w3.org/2000/svg" p-id="1602" xmlns:xlink="http://www.w3.org/1999/xlink" width="200" height="200"><defs><style type="text/css"></style></defs><path d="M642.88 657.728 697.088 621.952 740.544 621.952 740.544 337.728 616.576 337.728 616.576 621.952 630.08 621.952Z" p-id="1603"></path><path d="M535.936 33.856c-244.224 0-442.176 197.952-442.176 442.176s197.952 442.176 442.176 442.176 442.176-197.952 442.176-442.176S780.16 33.856 535.936 33.856zM449.216 504.128c0 0.448-0.064 0.96-0.128 1.408-1.408 19.2-6.016 41.28-12.352 63.616l0-0.064 22.912-16.96 67.712 75.84c8.832 31.04-3.2 59.264-3.2 59.264L432.896 582.016l0-0.128c-9.024 28.8-20.608 57.152-31.808 79.552-21.504 43.008-52.544 51.52-85.376 54.336-32.832 2.816-22.208-4.928-22.208-4.928 64.896-52.224 74.432-82.56 92.416-115.712 11.328-20.928 19.456-60.352 24.064-91.008L299.2 504.128c0 0 4.608-29.248 18.368-39.168l97.024 0c0.576-14.4-1.28-96.64-1.92-123.456l-47.104 0c-8.832 42.304-39.168 53.248-45.824 56.448-6.72 3.2-22.592 6.72-20.096 0 2.496-6.72 25.728-43.392 41.28-104.064 15.552-60.672 60.992-58.24 60.992-58.24-12.224 21.184-21.376 69.12-21.376 69.12l152.384 0c9.664 0 10.112 36.672 10.112 36.672L456.256 341.44c-0.704 21.312-2.624 78.72-4.8 123.456l91.136 0c0 0 11.648 14.464 11.648 39.168L449.216 504.064zM779.904 661.12 696.32 661.12l-66.304 43.84-15.68-43.84-38.272 0L576.064 297.088l203.84 0L779.904 661.12z" p-id="1604"></path></svg>